PathFileType  4	(X/Y/Z) C:\Users\antoi\Documents\MyRepositories\mobilecap\ResultsAnalysis
DataRate	CameraRate	NumFrames	NumMarkers	Units	OrigDataRate	OrigDataStartFrame	OrigNumFrames
100.0	100.0	5	51	mm	100.0	32	250
Frame#	Time	r_knee			r_shank_antsup			r_ankle			r_calc			r_5meta			r_toe			L_knee			L_shank_antsup			L_ankle			L_calc			L_5meta			L_toe			r_sh2			r_sh3			r_sh4			L_sh2			L_sh3			r_thigh1			r_thigh2			r_thigh3			r_thigh4			r_thigh5			L_thigh1			L_thigh2			L_thigh3			L_thigh4			r.ASIS			r.PSIS			L.ASIS			L.PSIS			C7			R_Shoulder			L_Shoulder			R_Sternum			L_Sternum			R_humerus			R_elbow_med			R_elbow_lat			R_forearm			R_wrist_radius			R_wrist_ulna			L_humerus			L_elbow_med			L_elbow_lat			L_forearm			L_wrist_radius			L_wrist_ulna			R_HJC			L_HJC			R_HJC_reg			L_HJC_reg			
		X1	Y1	Z1	X2	Y2	Z2	X3	Y3	Z3	X4	Y4	Z4	X5	Y5	Z5	X6	Y6	Z6	X7	Y7	Z7	X8	Y8	Z8	X9	Y9	Z9	X10	Y10	Z10	X11	Y11	Z11	X12	Y12	Z12	X13	Y13	Z13	X14	Y14	Z14	X15	Y15	Z15	X16	Y16	Z16	X17	Y17	Z17	X18	Y18	Z18	X19	Y19	Z19	X20	Y20	Z20	X21	Y21	Z21	X22	Y22	Z22	X23	Y23	Z23	X24	Y24	Z24	X25	Y25	Z25	X26	Y26	Z26	X27	Y27	Z27	X28	Y28	Z28	X29	Y29	Z29	X30	Y30	Z30	X31	Y31	Z31	X32	Y32	Z32	X33	Y33	Z33	X34	Y34	Z34	X35	Y35	Z35	X36	Y36	Z36	X37	Y37	Z37	X38	Y38	Z38	X39	Y39	Z39	X40	Y40	Z40	X41	Y41	Z41	X42	Y42	Z42	X43	Y43	Z43	X44	Y44	Z44	X45	Y45	Z45	X46	Y46	Z46	X47	Y47	Z47	X48	Y48	Z48	X49	Y49	Z49	X50	Y50	Z50	X51	Y51	Z51	

32	0.31000000	-1156.85092	798.11455	-449.66432	-1134.38382	696.51626	-456.38319	-1271.23904	400.11069	-463.35041	-1333.68668	364.93329	-511.52568	-1152.53871	351.50871	-423.43438	-1119.91316	379.96660	-477.36563	-1160.63145	805.36077	-730.87132	-1132.27071	714.98896	-715.90680	-1257.48619	405.63393	-716.10362	-1330.14790	360.50310	-671.02570	-1151.56263	350.83423	-752.48914	-1106.65836	374.97820	-695.03981	-1165.75092	587.48699	-458.21684	-1196.14905	713.28749	-415.67500	-1234.14356	604.00131	-412.75368	-1207.18850	743.79614	-758.23727	-1236.45236	625.27080	-763.70975	-1115.62650	1078.11216	-420.73641	-1105.19308	968.08692	-438.47521	-1154.39828	934.20699	-408.27703	-1227.26592	1059.97814	-408.73998	-1207.45086	947.46652	-423.93191	-1093.11750	1052.25481	-749.91390	-1081.70367	914.90602	-723.99923	-1197.27831	1038.11536	-784.64852	-1185.81293	908.48994	-754.04882	-1084.92245	1259.80976	-463.49524	-1283.54065	1322.39585	-547.44638	-1082.00873	1267.24311	-719.74477	-1279.78107	1324.33817	-641.92533	-1167.84516	1774.96653	-584.74877	-1108.45892	1733.97259	-417.81528	-1088.53909	1730.73279	-734.64628	-1061.45764	1680.31147	-556.33500	-1060.13880	1682.23677	-601.89679	-1097.38165	1598.36081	-363.82505	-1227.24069	1424.83703	-390.40956	-1205.83495	1431.83583	-331.43670	-1164.42011	1356.32237	-310.33059	-1140.76775	1187.07190	-335.25713	-1174.49227	1192.92640	-299.13810	-1087.29927	1586.89212	-796.59408	-1217.28377	1418.39213	-760.41746	-1190.60931	1425.97274	-838.11113	-1159.20248	1356.84541	-854.02606	-1167.02663	1176.48537	-848.22575	-1200.13989	1192.91761	-884.83162	-1178.89520	1185.49280	-494.13180	-1174.34006	1191.41700	-683.54699	-1169.45506	1194.84485	-504.45847	-1162.72860	1198.31987	-673.49550	
33	0.32000000	-1155.64676	797.90489	-449.41809	-1133.30391	696.04751	-456.41597	-1271.21095	400.02206	-463.36669	-1333.62488	365.00702	-511.53530	-1152.55141	351.50915	-423.43063	-1119.89993	379.95346	-477.38025	-1157.90117	804.67219	-730.37362	-1129.75544	714.10530	-715.50202	-1257.38232	405.64530	-716.07643	-1330.12454	360.53594	-670.99869	-1151.55106	350.85176	-752.47912	-1106.62985	375.00931	-695.02791	-1164.99688	587.22702	-458.20906	-1195.16022	713.14608	-415.55938	-1233.25559	603.87160	-412.76456	-1204.30437	743.54894	-758.19426	-1234.40980	625.16659	-763.71873	-1115.15885	1077.67957	-420.74101	-1104.44780	967.88316	-438.41128	-1153.68280	933.75559	-408.21824	-1226.96971	1059.82854	-407.69502	-1206.73925	946.98095	-423.82138	-1091.92170	1051.87188	-749.62791	-1079.85021	914.59780	-723.57201	-1196.30421	1036.84467	-784.04222	-1183.85564	907.60301	-753.69415	-1084.58061	1258.98014	-463.38390	-1283.04981	1322.38114	-547.43956	-1081.86291	1266.30850	-719.34721	-1279.21493	1324.18034	-641.82800	-1163.09395	1774.51508	-584.13510	-1103.89886	1732.75105	-417.43638	-1083.95158	1729.64391	-734.20167	-1057.22782	1678.19806	-555.14855	-1056.27893	1680.69828	-601.48177	-1094.75687	1597.04777	-363.16118	-1227.23890	1425.58046	-389.59371	-1206.18918	1432.42328	-330.46142	-1166.15201	1356.36819	-308.91171	-1145.08757	1186.61133	-333.00796	-1179.19006	1193.16351	-297.34911	-1085.07856	1585.98469	-796.47053	-1218.34110	1419.68249	-760.18911	-1191.64628	1427.09063	-838.18645	-1161.97361	1357.42436	-854.56489	-1173.40500	1177.25125	-849.89120	-1206.41980	1194.55992	-886.22378	-1178.95721	1185.06292	-493.90401	-1174.36172	1190.83818	-683.32272	-1169.53901	1194.53949	-504.27101	-1162.67919	1197.75800	-673.11558	
34	0.33000000	-1154.47948	797.72252	-449.04314	-1132.16586	695.54607	-456.40129	-1271.21195	400.02187	-463.37925	-1333.57183	365.03674	-511.49996	-1152.55297	351.49563	-423.43904	-1119.84466	379.91356	-477.38932	-1155.10560	803.93340	-730.22115	-1127.20325	713.22990	-715.22912	-1257.27985	405.67836	-716.10647	-1330.09443	360.58446	-671.01123	-1151.53887	350.87609	-752.46874	-1106.67831	375.04435	-695.04453	-1164.13169	586.78956	-458.09574	-1194.03546	712.96215	-415.61909	-1232.24038	603.25770	-413.06711	-1201.48392	743.18892	-757.74574	-1232.43982	625.04580	-763.51916	-1114.76433	1077.27965	-420.74413	-1103.57777	967.72260	-438.25599	-1152.78839	933.40888	-407.96359	-1226.41521	1059.42059	-407.37269	-1205.90236	946.37209	-423.81443	-1090.78298	1051.36598	-749.23898	-1077.94332	914.17155	-723.09527	-1194.50739	1035.97246	-784.45864	-1181.89674	906.75364	-753.47483	-1084.21445	1258.10424	-463.19280	-1282.40882	1322.39541	-547.34446	-1082.00563	1265.30210	-718.62698	-1278.63743	1323.99412	-641.74318	-1158.25225	1773.91874	-583.72006	-1099.31153	1731.32182	-417.01996	-1079.29141	1728.43334	-733.76513	-1053.23846	1676.64794	-554.79729	-1052.31905	1679.06609	-601.03203	-1092.07062	1595.63950	-362.44876	-1227.15532	1426.25498	-388.84052	-1206.45260	1432.93233	-329.55350	-1167.77845	1356.33124	-307.63656	-1149.51254	1186.21816	-330.85333	-1183.88036	1193.43033	-295.73929	-1082.73619	1584.96479	-796.22390	-1219.50951	1421.10671	-760.34837	-1192.65537	1428.32169	-838.53443	-1164.78540	1358.16786	-854.99576	-1179.67893	1178.18525	-851.47221	-1212.56729	1196.45886	-887.66585	-1179.08085	1184.64861	-493.50869	-1174.49006	1190.18649	-682.93461	-1169.61407	1194.36309	-503.79028	-1162.88200	1197.21704	-672.29149	
35	0.34000000	-1153.12532	797.30150	-448.84196	-1130.91122	695.14295	-456.27931	-1271.20581	400.03164	-463.37556	-1333.54896	365.04124	-511.42291	-1152.48603	351.48969	-423.42053	-1119.77223	379.84676	-477.34998	-1152.25347	803.26215	-730.19446	-1124.62225	712.33169	-714.88135	-1257.17933	405.69482	-716.10135	-1330.06671	360.61779	-671.01119	-1151.52123	350.90127	-752.44464	-1106.70629	375.06193	-695.04396	-1163.27418	586.30897	-457.94614	-1192.76387	712.62947	-415.73753	-1231.27362	602.79798	-413.30187	-1198.77009	742.63578	-756.92439	-1230.46994	624.90788	-763.25005	-1114.18813	1076.98972	-420.35886	-1102.69383	967.39274	-438.08628	-1151.65563	932.93576	-407.73485	-1225.79841	1059.01944	-407.22665	-1204.94968	945.69231	-423.68219	-1089.69216	1050.83049	-748.87771	-1075.90989	913.64747	-722.54616	-1192.58076	1035.28953	-785.09951	-1179.87126	905.85358	-753.29771	-1083.86237	1257.20400	-463.00666	-1281.73265	1322.36370	-547.10454	-1081.91999	1264.32678	-718.22419	-1277.98008	1323.80532	-641.65955	-1153.24614	1773.14262	-583.29321	-1094.61892	1729.81528	-416.48340	-1074.56456	1727.11159	-733.25062	-1049.24163	1675.07802	-554.45411	-1048.21463	1677.31090	-600.50588	-1089.32850	1594.08469	-361.79663	-1227.28840	1426.81634	-388.08613	-1206.63289	1433.38011	-328.73038	-1169.31338	1356.27892	-306.42450	-1154.04267	1185.84744	-328.87914	-1188.50079	1193.76537	-294.11667	-1080.34736	1583.85627	-796.08111	-1220.12043	1422.55638	-760.50897	-1193.53714	1429.61714	-839.19906	-1167.31103	1358.93638	-855.52153	-1185.64243	1179.10383	-852.80639	-1218.63038	1198.44591	-888.87815	-1179.09262	1184.17612	-493.21285	-1174.52701	1189.57351	-682.64355	-1169.64141	1194.04523	-503.43578	-1162.95981	1196.61211	-671.79770	
36	0.35000000	-1151.44843	796.49445	-448.85906	-1129.49858	694.78258	-456.16148	-1271.20090	400.01646	-463.37566	-1333.57702	365.03632	-511.36554	-1152.38604	351.46826	-423.38731	-1119.71678	379.78754	-477.29309	-1149.42541	802.61737	-729.94905	-1122.06729	711.33610	-714.52030	-1257.04911	405.68015	-715.97490	-1330.06782	360.61081	-670.86335	-1151.49888	350.92083	-752.41876	-1106.60858	375.07405	-695.01290	-1162.41873	585.89545	-457.85438	-1191.25375	712.15995	-415.64066	-1230.41316	603.03191	-413.05991	-1195.90404	742.15604	-756.55394	-1228.38948	624.80632	-763.20304	-1113.58024	1076.62975	-419.71961	-1101.79750	966.91472	-437.99799	-1150.45998	932.29620	-407.57613	-1225.15435	1058.45978	-406.84850	-1203.93270	945.02022	-423.33438	-1088.54920	1050.34949	-748.57373	-1073.92718	913.25360	-722.00157	-1191.18242	1034.26212	-784.87177	-1177.76630	904.83947	-753.06055	-1083.50256	1256.24100	-462.87886	-1281.13080	1322.23306	-546.74035	-1081.37546	1263.26896	-718.28276	-1277.27639	1323.61174	-641.51146	-1148.08208	1772.26294	-582.77075	-1089.84961	1728.22861	-415.92947	-1069.69139	1725.73650	-732.66636	-1045.04885	1673.27166	-553.87580	-1043.96824	1675.41047	-599.93290	-1086.51601	1592.37553	-361.23015	-1227.56964	1427.36383	-387.19927	-1206.70916	1433.78703	-327.87741	-1170.77944	1356.22394	-305.17891	-1158.56727	1185.40113	-327.12805	-1192.98338	1194.07529	-292.54786	-1077.85873	1582.68639	-796.04979	-1220.51773	1423.98313	-760.57423	-1194.13946	1430.82507	-839.67757	-1169.51090	1359.59044	-856.09022	-1191.46178	1180.05385	-853.87930	-1224.50431	1200.41594	-889.83240	-1178.96785	1183.58936	-493.05911	-1174.43295	1188.95172	-682.49149	-1169.58971	1193.40620	-503.38688	-1162.73758	1195.85683	-671.86610	
